<svg xmlns="http://www.w3.org/2000/svg" xmlns:xlink="http://www.w3.org/1999/xlink" width="50" zoomAndPan="magnify" viewBox="0 0 37.5 37.499999" height="50" preserveAspectRatio="xMidYMid meet" version="1.0"><defs><clipPath id="99239fbd8a"><path d="M 17 0.410156 L 20 0.410156 L 20 6 L 17 6 Z M 17 0.410156 " clip-rule="nonzero"/></clipPath><clipPath id="f35159a908"><path d="M 17 31 L 20 31 L 20 36.679688 L 17 36.679688 Z M 17 31 " clip-rule="nonzero"/></clipPath><clipPath id="5eb02c0900"><path d="M 0.410156 17 L 6 17 L 6 20 L 0.410156 20 Z M 0.410156 17 " clip-rule="nonzero"/></clipPath><clipPath id="2a12ed4b3d"><path d="M 31 17 L 36.679688 17 L 36.679688 20 L 31 20 Z M 31 17 " clip-rule="nonzero"/></clipPath></defs><path fill="#ffffff" d="M 18.5 6.695312 C 11.972656 6.695312 6.667969 12.003906 6.667969 18.527344 C 6.667969 25.050781 11.972656 30.359375 18.5 30.359375 C 25.023438 30.359375 30.332031 25.050781 30.332031 18.527344 C 30.332031 12.003906 25.023438 6.695312 18.5 6.695312 Z M 18.5 28.550781 C 12.972656 28.550781 8.476562 24.054688 8.476562 18.527344 C 8.476562 13 12.972656 8.503906 18.5 8.503906 C 24.027344 8.503906 28.523438 13 28.523438 18.527344 C 28.523438 24.054688 24.027344 28.550781 18.5 28.550781 Z M 18.5 28.550781 " fill-opacity="1" fill-rule="nonzero"/><g clip-path="url(#99239fbd8a)"><path fill="#ffffff" d="M 18.5 5.964844 C 18.996094 5.964844 19.402344 5.558594 19.402344 5.058594 L 19.402344 1.316406 C 19.402344 0.816406 18.996094 0.410156 18.5 0.410156 C 18 0.410156 17.59375 0.816406 17.59375 1.316406 L 17.59375 5.058594 C 17.59375 5.558594 18 5.964844 18.5 5.964844 Z M 18.5 5.964844 " fill-opacity="1" fill-rule="nonzero"/></g><g clip-path="url(#f35159a908)"><path fill="#ffffff" d="M 18.5 31.035156 C 18 31.035156 17.59375 31.4375 17.59375 31.9375 L 17.59375 35.679688 C 17.59375 36.179688 18 36.585938 18.5 36.585938 C 18.996094 36.585938 19.402344 36.179688 19.402344 35.679688 L 19.402344 31.9375 C 19.402344 31.4375 18.996094 31.035156 18.5 31.035156 Z M 18.5 31.035156 " fill-opacity="1" fill-rule="nonzero"/></g><g clip-path="url(#5eb02c0900)"><path fill="#ffffff" d="M 5.964844 18.527344 C 5.964844 18.027344 5.558594 17.621094 5.058594 17.621094 L 1.316406 17.621094 C 0.816406 17.621094 0.410156 18.027344 0.410156 18.527344 C 0.410156 19.027344 0.816406 19.429688 1.316406 19.429688 L 5.058594 19.429688 C 5.558594 19.429688 5.964844 19.027344 5.964844 18.527344 Z M 5.964844 18.527344 " fill-opacity="1" fill-rule="nonzero"/></g><g clip-path="url(#2a12ed4b3d)"><path fill="#ffffff" d="M 35.679688 17.621094 L 31.9375 17.621094 C 31.4375 17.621094 31.035156 18.027344 31.035156 18.527344 C 31.035156 19.027344 31.4375 19.429688 31.9375 19.429688 L 35.679688 19.429688 C 36.179688 19.429688 36.585938 19.027344 36.585938 18.527344 C 36.585938 18.027344 36.179688 17.621094 35.679688 17.621094 Z M 35.679688 17.621094 " fill-opacity="1" fill-rule="nonzero"/></g><path fill="#ffffff" d="M 8.355469 9.664062 C 8.53125 9.839844 8.761719 9.929688 8.996094 9.929688 C 9.226562 9.929688 9.457031 9.839844 9.636719 9.664062 C 9.988281 9.308594 9.988281 8.738281 9.636719 8.382812 L 6.988281 5.738281 C 6.636719 5.382812 6.0625 5.382812 5.710938 5.738281 C 5.355469 6.089844 5.355469 6.664062 5.710938 7.015625 Z M 8.355469 9.664062 " fill-opacity="1" fill-rule="nonzero"/><path fill="#ffffff" d="M 28.640625 27.390625 C 28.289062 27.039062 27.714844 27.039062 27.363281 27.390625 C 27.007812 27.742188 27.007812 28.316406 27.363281 28.667969 L 30.007812 31.316406 C 30.1875 31.492188 30.417969 31.582031 30.648438 31.582031 C 30.878906 31.582031 31.113281 31.492188 31.289062 31.316406 C 31.640625 30.964844 31.640625 30.390625 31.289062 30.039062 Z M 28.640625 27.390625 " fill-opacity="1" fill-rule="nonzero"/><path fill="#ffffff" d="M 8.375 27.410156 L 5.730469 30.058594 C 5.375 30.410156 5.375 30.984375 5.730469 31.335938 C 5.90625 31.511719 6.136719 31.601562 6.367188 31.601562 C 6.601562 31.601562 6.832031 31.511719 7.007812 31.335938 L 9.65625 28.691406 C 10.007812 28.335938 10.007812 27.765625 9.65625 27.410156 C 9.300781 27.058594 8.730469 27.058594 8.375 27.410156 Z M 8.375 27.410156 " fill-opacity="1" fill-rule="nonzero"/><path fill="#ffffff" d="M 28.023438 9.949219 C 28.253906 9.949219 28.484375 9.859375 28.660156 9.683594 L 31.308594 7.035156 C 31.664062 6.683594 31.664062 6.109375 31.308594 5.757812 C 30.957031 5.40625 30.382812 5.40625 30.03125 5.757812 L 27.382812 8.40625 C 27.03125 8.757812 27.03125 9.332031 27.382812 9.683594 C 27.558594 9.859375 27.792969 9.949219 28.023438 9.949219 Z M 28.023438 9.949219 " fill-opacity="1" fill-rule="nonzero"/></svg>