<svg xmlns="http://www.w3.org/2000/svg" xmlns:xlink="http://www.w3.org/1999/xlink" width="50" zoomAndPan="magnify" viewBox="0 0 37.5 37.499999" height="50" preserveAspectRatio="xMidYMid meet" version="1.0"><defs><clipPath id="cb0a552a1f"><path d="M 0.0273438 12.058594 L 32 12.058594 L 32 29.890625 L 0.0273438 29.890625 Z M 0.0273438 12.058594 " clip-rule="nonzero"/></clipPath><clipPath id="ed9f09bbc8"><path d="M 11 7.109375 L 37 7.109375 L 37 24 L 11 24 Z M 11 7.109375 " clip-rule="nonzero"/></clipPath></defs><g clip-path="url(#cb0a552a1f)"><path fill="#ffffff" d="M 26.808594 28.992188 L 4.394531 28.992188 C 2.484375 28.992188 0.925781 27.4375 0.925781 25.523438 C 0.925781 23.609375 2.484375 22.054688 4.394531 22.054688 C 4.574219 22.054688 4.753906 22.066406 4.925781 22.09375 C 5.066406 22.117188 5.207031 22.070312 5.308594 21.972656 C 5.410156 21.878906 5.457031 21.738281 5.441406 21.597656 C 5.414062 21.375 5.402344 21.167969 5.402344 20.960938 C 5.402344 17.992188 7.820312 15.574219 10.792969 15.574219 C 11.4375 15.574219 12.074219 15.6875 12.675781 15.914062 C 12.859375 15.980469 13.0625 15.925781 13.183594 15.773438 C 14.601562 14.007812 16.710938 12.996094 18.96875 12.996094 C 22.914062 12.996094 26.167969 16.078125 26.378906 20.011719 C 26.394531 20.246094 26.589844 20.433594 26.828125 20.433594 C 29.175781 20.445312 31.085938 22.363281 31.085938 24.714844 C 31.085938 27.070312 29.167969 28.992188 26.808594 28.992188 Z M 27.246094 19.554688 C 26.8125 15.339844 23.253906 12.097656 18.96875 12.097656 C 16.542969 12.097656 14.273438 13.140625 12.6875 14.96875 C 12.074219 14.773438 11.4375 14.675781 10.792969 14.675781 C 7.324219 14.675781 4.503906 17.496094 4.503906 20.960938 C 4.503906 21.027344 4.503906 21.09375 4.507812 21.15625 C 4.46875 21.15625 4.433594 21.15625 4.394531 21.15625 C 1.988281 21.15625 0.0273438 23.113281 0.0273438 25.523438 C 0.0273438 27.929688 1.988281 29.890625 4.394531 29.890625 L 26.808594 29.890625 C 29.664062 29.890625 31.984375 27.566406 31.984375 24.714844 C 31.984375 22.011719 29.894531 19.777344 27.246094 19.554688 " fill-opacity="1" fill-rule="nonzero"/></g><g clip-path="url(#ed9f09bbc8)"><path fill="#ffffff" d="M 32.53125 14.101562 C 32.113281 10.148438 28.773438 7.109375 24.75 7.109375 C 22.476562 7.109375 20.34375 8.082031 18.851562 9.792969 C 18.28125 9.613281 17.6875 9.523438 17.085938 9.523438 C 14.484375 9.523438 12.210938 11.191406 11.433594 13.671875 C 11.359375 13.910156 11.492188 14.160156 11.730469 14.234375 C 11.964844 14.308594 12.21875 14.179688 12.292969 13.941406 C 12.953125 11.835938 14.878906 10.421875 17.085938 10.421875 C 17.6875 10.421875 18.28125 10.527344 18.84375 10.738281 C 19.023438 10.808594 19.230469 10.75 19.351562 10.601562 C 20.675781 8.953125 22.644531 8.007812 24.75 8.007812 C 28.429688 8.007812 31.46875 10.882812 31.667969 14.554688 C 31.679688 14.792969 31.875 14.976562 32.113281 14.980469 C 34.300781 14.988281 36.078125 16.773438 36.078125 18.960938 C 36.078125 20.84375 34.742188 22.484375 32.898438 22.859375 C 32.65625 22.910156 32.5 23.148438 32.550781 23.390625 C 32.59375 23.605469 32.78125 23.75 32.988281 23.75 C 33.019531 23.75 33.050781 23.746094 33.082031 23.742188 C 35.339844 23.277344 36.976562 21.269531 36.976562 18.960938 C 36.976562 16.421875 35.019531 14.320312 32.53125 14.101562 " fill-opacity="1" fill-rule="nonzero"/></g></svg>