<svg xmlns="http://www.w3.org/2000/svg" xmlns:xlink="http://www.w3.org/1999/xlink" width="50" zoomAndPan="magnify" viewBox="0 0 37.5 37.499999" height="50" preserveAspectRatio="xMidYMid meet" version="1.0"><path fill="#ffffff" d="M 21.511719 18.507812 L 30.515625 9.5 C 31.347656 8.671875 31.347656 7.324219 30.519531 6.496094 C 29.691406 5.667969 28.34375 5.667969 27.515625 6.5 L 18.507812 15.503906 L 9.5 6.5 C 8.671875 5.667969 7.328125 5.667969 6.496094 6.496094 C 5.667969 7.324219 5.667969 8.671875 6.5 9.5 L 15.503906 18.507812 L 6.5 27.515625 C 5.667969 28.34375 5.667969 29.6875 6.496094 30.519531 C 7.324219 31.347656 8.671875 31.347656 9.5 30.515625 L 18.507812 21.511719 L 27.515625 30.515625 C 28.34375 31.347656 29.691406 31.347656 30.519531 30.519531 C 31.347656 29.691406 31.347656 28.34375 30.515625 27.515625 Z M 21.511719 18.507812 " fill-opacity="1" fill-rule="evenodd"/></svg>