<svg xmlns="http://www.w3.org/2000/svg" xmlns:xlink="http://www.w3.org/1999/xlink" width="50" zoomAndPan="magnify" viewBox="0 0 37.5 37.499999" height="50" preserveAspectRatio="xMidYMid meet" version="1.0"><defs><clipPath id="1845f79845"><path d="M 7.304688 0.511719 L 19 0.511719 L 19 36.777344 L 7.304688 36.777344 Z M 7.304688 0.511719 " clip-rule="nonzero"/></clipPath><clipPath id="dec790d219"><path d="M 17 0.511719 L 19 0.511719 L 19 5 L 17 5 Z M 17 0.511719 " clip-rule="nonzero"/></clipPath><clipPath id="25056b264c"><path d="M 26 11 L 29.507812 11 L 29.507812 13 L 26 13 Z M 26 11 " clip-rule="nonzero"/></clipPath></defs><g clip-path="url(#1845f79845)"><path fill="#ffffff" d="M 13.03125 1.386719 C 12.394531 1.386719 11.800781 1.628906 11.351562 2.066406 C 10.972656 2.4375 10.734375 2.925781 10.675781 3.441406 C 10.664062 3.523438 10.660156 3.609375 10.660156 3.699219 L 10.660156 26.460938 C 10.660156 26.609375 10.582031 26.746094 10.457031 26.820312 C 9.015625 27.699219 8.152344 29.210938 8.152344 30.867188 C 8.152344 31.527344 8.289062 32.164062 8.554688 32.765625 C 8.789062 33.289062 9.117188 33.765625 9.527344 34.179688 C 10.453125 35.117188 11.699219 35.632812 13.03125 35.632812 C 15.722656 35.632812 17.910156 33.496094 17.910156 30.867188 C 17.910156 29.550781 17.34375 28.28125 16.359375 27.382812 C 16.351562 27.378906 16.34375 27.371094 16.335938 27.363281 C 16.109375 27.160156 15.867188 26.980469 15.605469 26.820312 C 15.480469 26.746094 15.402344 26.605469 15.402344 26.460938 L 15.402344 3.699219 C 15.402344 2.421875 14.339844 1.386719 13.03125 1.386719 Z M 13.03125 36.480469 C 12.242188 36.480469 11.480469 36.328125 10.761719 36.023438 C 10.070312 35.730469 9.453125 35.3125 8.921875 34.78125 C 8.441406 34.289062 8.054688 33.730469 7.78125 33.109375 C 7.464844 32.402344 7.304688 31.648438 7.304688 30.867188 C 7.304688 29.894531 7.5625 28.9375 8.050781 28.097656 C 8.484375 27.351562 9.089844 26.707031 9.8125 26.226562 L 9.8125 3.699219 C 9.8125 3.578125 9.816406 3.457031 9.832031 3.34375 C 9.910156 2.632812 10.242188 1.964844 10.757812 1.460938 C 11.363281 0.863281 12.171875 0.539062 13.03125 0.539062 C 14.808594 0.539062 16.253906 1.957031 16.253906 3.699219 L 16.253906 26.226562 C 16.480469 26.378906 16.699219 26.550781 16.90625 26.734375 C 16.90625 26.734375 16.910156 26.738281 16.910156 26.738281 C 16.910156 26.738281 16.914062 26.742188 16.917969 26.742188 C 16.917969 26.746094 16.921875 26.75 16.925781 26.753906 C 17.496094 27.273438 17.949219 27.886719 18.265625 28.582031 C 18.59375 29.304688 18.757812 30.074219 18.757812 30.867188 C 18.757812 32.371094 18.160156 33.78125 17.078125 34.839844 C 15.996094 35.898438 14.558594 36.480469 13.03125 36.480469 " fill-opacity="1" fill-rule="nonzero"/></g><path fill="#ffffff" d="M 15.726562 4.945312 L 14.71875 4.945312 C 14.484375 4.945312 14.292969 4.753906 14.292969 4.519531 C 14.292969 4.285156 14.484375 4.09375 14.71875 4.09375 L 15.726562 4.09375 C 15.960938 4.09375 16.152344 4.285156 16.152344 4.519531 C 16.152344 4.753906 15.960938 4.945312 15.726562 4.945312 " fill-opacity="1" fill-rule="nonzero"/><path fill="#ffffff" d="M 15.777344 7.574219 L 14.769531 7.574219 C 14.535156 7.574219 14.34375 7.382812 14.34375 7.148438 C 14.34375 6.914062 14.535156 6.726562 14.769531 6.726562 L 15.777344 6.726562 C 16.011719 6.726562 16.203125 6.914062 16.203125 7.148438 C 16.203125 7.382812 16.011719 7.574219 15.777344 7.574219 " fill-opacity="1" fill-rule="nonzero"/><path fill="#ffffff" d="M 15.828125 10.203125 L 14.820312 10.203125 C 14.585938 10.203125 14.394531 10.015625 14.394531 9.78125 C 14.394531 9.546875 14.585938 9.355469 14.820312 9.355469 L 15.828125 9.355469 C 16.0625 9.355469 16.253906 9.546875 16.253906 9.78125 C 16.253906 10.015625 16.0625 10.203125 15.828125 10.203125 " fill-opacity="1" fill-rule="nonzero"/><path fill="#ffffff" d="M 15.675781 12.835938 L 14.667969 12.835938 C 14.433594 12.835938 14.242188 12.644531 14.242188 12.410156 C 14.242188 12.175781 14.433594 11.984375 14.667969 11.984375 L 15.675781 11.984375 C 15.910156 11.984375 16.101562 12.175781 16.101562 12.410156 C 16.101562 12.644531 15.910156 12.835938 15.675781 12.835938 " fill-opacity="1" fill-rule="nonzero"/><path fill="#ffffff" d="M 15.726562 15.464844 L 14.71875 15.464844 C 14.484375 15.464844 14.292969 15.273438 14.292969 15.039062 C 14.292969 14.804688 14.484375 14.613281 14.71875 14.613281 L 15.726562 14.613281 C 15.960938 14.613281 16.152344 14.804688 16.152344 15.039062 C 16.152344 15.273438 15.960938 15.464844 15.726562 15.464844 " fill-opacity="1" fill-rule="nonzero"/><path fill="#ffffff" d="M 15.777344 18.09375 L 14.769531 18.09375 C 14.535156 18.09375 14.34375 17.90625 14.34375 17.667969 C 14.34375 17.433594 14.535156 17.246094 14.769531 17.246094 L 15.777344 17.246094 C 16.011719 17.246094 16.203125 17.433594 16.203125 17.667969 C 16.203125 17.90625 16.011719 18.09375 15.777344 18.09375 " fill-opacity="1" fill-rule="nonzero"/><path fill="#ffffff" d="M 15.777344 20.65625 L 14.769531 20.65625 C 14.535156 20.65625 14.34375 20.46875 14.34375 20.234375 C 14.34375 20 14.535156 19.808594 14.769531 19.808594 L 15.777344 19.808594 C 16.011719 19.808594 16.203125 20 16.203125 20.234375 C 16.203125 20.46875 16.011719 20.65625 15.777344 20.65625 " fill-opacity="1" fill-rule="nonzero"/><path fill="#ffffff" d="M 15.777344 23.265625 L 14.769531 23.265625 C 14.535156 23.265625 14.34375 23.074219 14.34375 22.839844 C 14.34375 22.605469 14.535156 22.417969 14.769531 22.417969 L 15.777344 22.417969 C 16.011719 22.417969 16.203125 22.605469 16.203125 22.839844 C 16.203125 23.074219 16.011719 23.265625 15.777344 23.265625 " fill-opacity="1" fill-rule="nonzero"/><path fill="#ffffff" d="M 13.03125 28.828125 C 11.914062 28.828125 11.003906 29.738281 11.003906 30.855469 C 11.003906 31.972656 11.914062 32.882812 13.03125 32.882812 C 14.148438 32.882812 15.058594 31.972656 15.058594 30.855469 C 15.058594 29.738281 14.148438 28.828125 13.03125 28.828125 Z M 13.03125 33.730469 C 11.445312 33.730469 10.152344 32.441406 10.152344 30.855469 C 10.152344 29.269531 11.445312 27.976562 13.03125 27.976562 C 14.617188 27.976562 15.910156 29.269531 15.910156 30.855469 C 15.910156 32.441406 14.617188 33.730469 13.03125 33.730469 " fill-opacity="1" fill-rule="nonzero"/><path fill="#ffffff" d="M 13.03125 28.828125 C 12.796875 28.828125 12.605469 28.636719 12.605469 28.402344 L 12.605469 4.519531 C 12.605469 4.285156 12.796875 4.09375 13.03125 4.09375 C 13.265625 4.09375 13.457031 4.285156 13.457031 4.519531 L 13.457031 28.402344 C 13.457031 28.636719 13.265625 28.828125 13.03125 28.828125 " fill-opacity="1" fill-rule="nonzero"/><path fill="#ffffff" d="M 18.195312 19.199219 C 17.328125 19.199219 16.480469 19.046875 15.679688 18.746094 C 15.460938 18.664062 15.347656 18.417969 15.429688 18.199219 C 15.511719 17.976562 15.757812 17.867188 15.976562 17.949219 C 16.683594 18.214844 17.429688 18.347656 18.195312 18.347656 C 21.683594 18.347656 24.523438 15.507812 24.523438 12.019531 C 24.523438 8.527344 21.683594 5.691406 18.195312 5.691406 C 17.429688 5.691406 16.683594 5.824219 15.976562 6.089844 C 15.757812 6.171875 15.511719 6.058594 15.429688 5.839844 C 15.347656 5.621094 15.460938 5.375 15.679688 5.292969 C 16.480469 4.992188 17.328125 4.839844 18.195312 4.839844 C 20.109375 4.839844 21.914062 5.585938 23.269531 6.941406 C 24.625 8.296875 25.371094 10.101562 25.371094 12.019531 C 25.371094 13.9375 24.625 15.738281 23.269531 17.09375 C 21.914062 18.449219 20.109375 19.199219 18.195312 19.199219 " fill-opacity="1" fill-rule="nonzero"/><g clip-path="url(#dec790d219)"><path fill="#ffffff" d="M 18.195312 4.125 C 17.957031 4.125 17.769531 3.933594 17.769531 3.699219 L 17.769531 0.945312 C 17.769531 0.710938 17.957031 0.519531 18.195312 0.519531 C 18.429688 0.519531 18.617188 0.710938 18.617188 0.945312 L 18.617188 3.699219 C 18.617188 3.933594 18.429688 4.125 18.195312 4.125 " fill-opacity="1" fill-rule="nonzero"/></g><path fill="#ffffff" d="M 18.195312 23.519531 C 17.957031 23.519531 17.769531 23.328125 17.769531 23.09375 L 17.769531 20.335938 C 17.769531 20.101562 17.957031 19.914062 18.195312 19.914062 C 18.429688 19.914062 18.617188 20.101562 18.617188 20.335938 L 18.617188 23.09375 C 18.617188 23.328125 18.429688 23.519531 18.195312 23.519531 " fill-opacity="1" fill-rule="nonzero"/><path fill="#ffffff" d="M 26.023438 20.273438 C 25.914062 20.273438 25.808594 20.234375 25.722656 20.148438 L 23.773438 18.199219 C 23.609375 18.035156 23.609375 17.765625 23.773438 17.601562 C 23.941406 17.433594 24.210938 17.433594 24.375 17.601562 L 26.324219 19.550781 C 26.492188 19.714844 26.492188 19.984375 26.324219 20.148438 C 26.242188 20.234375 26.132812 20.273438 26.023438 20.273438 " fill-opacity="1" fill-rule="nonzero"/><g clip-path="url(#25056b264c)"><path fill="#ffffff" d="M 29.269531 12.445312 L 26.511719 12.445312 C 26.277344 12.445312 26.085938 12.253906 26.085938 12.019531 C 26.085938 11.785156 26.277344 11.59375 26.511719 11.59375 L 29.269531 11.59375 C 29.503906 11.59375 29.691406 11.785156 29.691406 12.019531 C 29.691406 12.253906 29.503906 12.445312 29.269531 12.445312 " fill-opacity="1" fill-rule="nonzero"/></g><path fill="#ffffff" d="M 24.074219 6.5625 C 23.964844 6.5625 23.859375 6.519531 23.773438 6.4375 C 23.609375 6.269531 23.609375 6.003906 23.773438 5.835938 L 25.722656 3.886719 C 25.890625 3.722656 26.160156 3.722656 26.324219 3.886719 C 26.492188 4.054688 26.492188 4.324219 26.324219 4.488281 L 24.375 6.4375 C 24.292969 6.519531 24.183594 6.5625 24.074219 6.5625 " fill-opacity="1" fill-rule="nonzero"/><path fill="#ffffff" d="M 21.878906 21.34375 C 21.714844 21.34375 21.554688 21.246094 21.488281 21.082031 L 20.984375 19.867188 C 20.894531 19.648438 20.996094 19.402344 21.214844 19.3125 C 21.429688 19.222656 21.679688 19.324219 21.769531 19.542969 L 22.273438 20.753906 C 22.363281 20.972656 22.257812 21.222656 22.042969 21.3125 C 21.988281 21.332031 21.933594 21.34375 21.878906 21.34375 " fill-opacity="1" fill-rule="nonzero"/><path fill="#ffffff" d="M 27.09375 16.128906 C 27.039062 16.128906 26.984375 16.121094 26.929688 16.097656 L 25.714844 15.59375 C 25.5 15.503906 25.394531 15.257812 25.484375 15.039062 C 25.574219 14.824219 25.824219 14.71875 26.042969 14.808594 L 27.253906 15.3125 C 27.472656 15.402344 27.574219 15.652344 27.484375 15.867188 C 27.417969 16.03125 27.257812 16.128906 27.09375 16.128906 " fill-opacity="1" fill-rule="nonzero"/><path fill="#ffffff" d="M 25.878906 9.261719 C 25.710938 9.261719 25.554688 9.160156 25.484375 9 C 25.394531 8.78125 25.5 8.53125 25.714844 8.441406 L 26.929688 7.941406 C 27.148438 7.851562 27.394531 7.953125 27.484375 8.167969 C 27.574219 8.386719 27.472656 8.636719 27.253906 8.726562 L 26.042969 9.226562 C 25.988281 9.25 25.933594 9.261719 25.878906 9.261719 " fill-opacity="1" fill-rule="nonzero"/><path fill="#ffffff" d="M 21.375 4.757812 C 21.324219 4.757812 21.265625 4.75 21.214844 4.726562 C 20.996094 4.636719 20.894531 4.386719 20.984375 4.171875 L 21.488281 2.957031 C 21.578125 2.738281 21.824219 2.636719 22.042969 2.726562 C 22.257812 2.816406 22.363281 3.066406 22.273438 3.28125 L 21.769531 4.496094 C 21.703125 4.660156 21.542969 4.757812 21.375 4.757812 " fill-opacity="1" fill-rule="nonzero"/></svg>