<svg xmlns="http://www.w3.org/2000/svg" xmlns:xlink="http://www.w3.org/1999/xlink" width="50" zoomAndPan="magnify" viewBox="0 0 37.5 37.499999" height="50" preserveAspectRatio="xMidYMid meet" version="1.0"><defs><clipPath id="3c867b0749"><path d="M 0 6.269531 L 37 6.269531 L 37 30.691406 L 0 30.691406 Z M 0 6.269531 " clip-rule="nonzero"/></clipPath></defs><g clip-path="url(#3c867b0749)"><path fill="#ffffff" d="M 29.914062 19.410156 L 33.046875 19.410156 C 35.222656 19.410156 36.996094 17.636719 36.996094 15.460938 C 36.996094 13.285156 35.222656 11.511719 33.046875 11.511719 L 31.832031 11.511719 L 31.832031 11.089844 C 31.832031 8.625 29.828125 6.621094 27.363281 6.621094 L 24.832031 6.621094 C 22.863281 6.621094 21.1875 7.902344 20.597656 9.675781 C 19.09375 7.613281 16.664062 6.269531 13.925781 6.269531 C 9.371094 6.269531 5.664062 9.972656 5.664062 14.527344 L 5.664062 15.066406 L 4.460938 15.066406 C 2.003906 15.066406 0.0078125 17.066406 0.0078125 19.519531 C 0.0078125 21.976562 2.003906 23.972656 4.460938 23.972656 L 9.472656 23.972656 C 9.75 23.972656 9.976562 23.75 9.976562 23.46875 C 9.976562 23.191406 9.75 22.964844 9.472656 22.964844 L 4.460938 22.964844 C 2.558594 22.964844 1.015625 21.421875 1.015625 19.519531 C 1.015625 17.621094 2.558594 16.074219 4.460938 16.074219 L 10.644531 16.074219 C 10.925781 16.074219 11.148438 15.847656 11.148438 15.570312 C 11.148438 15.292969 10.925781 15.066406 10.644531 15.066406 L 6.671875 15.066406 L 6.671875 14.527344 C 6.671875 10.527344 9.925781 7.273438 13.925781 7.273438 C 16.757812 7.273438 19.207031 8.910156 20.402344 11.28125 C 20.402344 11.285156 20.40625 11.285156 20.40625 11.289062 C 20.898438 12.265625 21.179688 13.363281 21.179688 14.527344 L 21.179688 14.761719 C 21.179688 15.039062 21.40625 15.265625 21.683594 15.265625 C 21.960938 15.265625 22.1875 15.039062 22.1875 14.761719 L 22.1875 14.527344 C 22.1875 14.070312 22.140625 13.621094 22.066406 13.183594 L 24.171875 13.183594 C 25.476562 13.183594 26.707031 13.691406 27.628906 14.617188 C 28.554688 15.546875 29.0625 16.777344 29.0625 18.089844 C 29.058594 20.777344 26.863281 22.964844 24.171875 22.964844 L 14.515625 22.964844 C 14.238281 22.964844 14.011719 23.191406 14.011719 23.46875 C 14.011719 23.75 14.238281 23.972656 14.515625 23.972656 L 24.171875 23.972656 C 26.964844 23.972656 29.308594 22.019531 29.914062 19.410156 Z M 28.34375 13.90625 C 27.230469 12.789062 25.746094 12.175781 24.171875 12.175781 L 21.839844 12.175781 C 21.71875 11.761719 21.558594 11.367188 21.375 10.984375 C 21.433594 9.125 22.957031 7.628906 24.832031 7.628906 L 27.363281 7.628906 C 29.273438 7.628906 30.824219 9.179688 30.824219 11.089844 L 30.824219 13.925781 C 30.824219 14.203125 31.050781 14.429688 31.328125 14.429688 C 31.609375 14.429688 31.832031 14.203125 31.832031 13.925781 L 31.832031 12.519531 L 33.046875 12.519531 C 34.667969 12.519531 35.988281 13.839844 35.988281 15.460938 C 35.988281 17.082031 34.667969 18.402344 33.046875 18.402344 L 30.054688 18.402344 C 30.058594 18.296875 30.070312 18.195312 30.070312 18.089844 C 30.070312 16.511719 29.457031 15.023438 28.34375 13.90625 Z M 10.410156 23.410156 C 10.410156 23.132812 10.632812 22.90625 10.914062 22.90625 L 13.085938 22.90625 C 13.363281 22.90625 13.585938 23.132812 13.585938 23.410156 C 13.585938 23.6875 13.363281 23.914062 13.085938 23.914062 L 10.914062 23.914062 C 10.632812 23.914062 10.410156 23.6875 10.410156 23.410156 Z M 6.550781 20.214844 L 20.15625 20.214844 C 20.433594 20.214844 20.660156 20.441406 20.660156 20.71875 C 20.660156 20.996094 20.433594 21.222656 20.15625 21.222656 L 6.550781 21.222656 C 6.273438 21.222656 6.046875 20.996094 6.046875 20.71875 C 6.046875 20.441406 6.273438 20.214844 6.550781 20.214844 Z M 11.335938 18.957031 C 11.058594 18.957031 10.832031 18.730469 10.832031 18.453125 C 10.832031 18.175781 11.058594 17.949219 11.335938 17.949219 L 24.941406 17.949219 C 25.21875 17.949219 25.445312 18.175781 25.445312 18.453125 C 25.445312 18.730469 25.21875 18.957031 24.941406 18.957031 Z M 27.980469 25.605469 C 27.980469 25.882812 27.753906 26.109375 27.476562 26.109375 L 9.46875 26.109375 C 9.1875 26.109375 8.964844 25.882812 8.964844 25.605469 C 8.964844 25.328125 9.1875 25.101562 9.46875 25.101562 L 27.476562 25.101562 C 27.753906 25.101562 27.980469 25.328125 27.980469 25.605469 Z M 8.964844 30.234375 C 8.964844 29.957031 9.1875 29.730469 9.46875 29.730469 L 27.476562 29.730469 C 27.753906 29.730469 27.980469 29.957031 27.980469 30.234375 C 27.980469 30.511719 27.753906 30.738281 27.476562 30.738281 L 9.46875 30.738281 C 9.1875 30.738281 8.964844 30.511719 8.964844 30.234375 Z M 22.039062 28.375 L 2.339844 28.375 C 2.0625 28.375 1.835938 28.152344 1.835938 27.871094 C 1.835938 27.59375 2.0625 27.367188 2.339844 27.367188 L 22.039062 27.367188 C 22.320312 27.367188 22.542969 27.59375 22.542969 27.871094 C 22.542969 28.152344 22.320312 28.375 22.039062 28.375 Z M 22.039062 28.375 " fill-opacity="1" fill-rule="nonzero"/></g></svg>