<svg xmlns="http://www.w3.org/2000/svg" xmlns:xlink="http://www.w3.org/1999/xlink" width="50" zoomAndPan="magnify" viewBox="0 0 37.5 37.499999" height="50" preserveAspectRatio="xMidYMid meet" version="1.0"><defs><clipPath id="157f561394"><path d="M 0 0.839844 L 37 0.839844 L 37 22 L 0 22 Z M 0 0.839844 " clip-rule="nonzero"/></clipPath><clipPath id="10bc086c4e"><path d="M 7 32 L 12 32 L 12 36.367188 L 7 36.367188 Z M 7 32 " clip-rule="nonzero"/></clipPath><clipPath id="f5448f4b9a"><path d="M 14 32 L 19 32 L 19 36.367188 L 14 36.367188 Z M 14 32 " clip-rule="nonzero"/></clipPath></defs><g clip-path="url(#157f561394)"><path fill="#ffffff" d="M 30.984375 21.714844 L 6.972656 21.714844 C 3.132812 21.714844 0.0117188 18.59375 0.0117188 14.753906 C 0.0117188 10.914062 3.132812 7.792969 6.972656 7.792969 C 8.003906 7.792969 9.011719 8.015625 9.933594 8.449219 C 10.195312 4.210938 13.726562 0.839844 18.03125 0.839844 C 21.160156 0.839844 24.011719 2.667969 25.347656 5.460938 C 26.027344 5.058594 26.789062 4.847656 27.582031 4.847656 C 30.050781 4.847656 32.058594 6.855469 32.058594 9.324219 C 32.058594 9.429688 32.054688 9.53125 32.046875 9.636719 C 34.90625 10.179688 36.996094 12.648438 36.996094 15.609375 C 36.996094 18.886719 34.347656 21.609375 31.078125 21.710938 C 31.046875 21.714844 31.015625 21.714844 30.988281 21.714844 Z M 6.972656 8.972656 C 3.785156 8.972656 1.191406 11.566406 1.191406 14.753906 C 1.191406 17.941406 3.785156 20.535156 6.972656 20.535156 L 30.910156 20.535156 C 30.929688 20.535156 30.953125 20.53125 30.976562 20.53125 C 33.644531 20.484375 35.816406 18.273438 35.816406 15.609375 C 35.816406 12.941406 33.886719 10.957031 31.328125 10.726562 C 31.15625 10.710938 31.003906 10.625 30.902344 10.488281 C 30.804688 10.355469 30.765625 10.183594 30.800781 10.015625 C 30.851562 9.78125 30.878906 9.546875 30.878906 9.324219 C 30.878906 7.507812 29.398438 6.027344 27.582031 6.027344 C 26.808594 6.027344 26.078125 6.300781 25.46875 6.816406 C 25.320312 6.941406 25.121094 6.984375 24.9375 6.933594 C 24.75 6.886719 24.601562 6.75 24.535156 6.566406 C 23.535156 3.847656 20.921875 2.019531 18.03125 2.019531 C 14.207031 2.019531 11.097656 5.128906 11.097656 8.953125 C 11.097656 9.078125 11.105469 9.207031 11.117188 9.34375 L 11.121094 9.425781 C 11.136719 9.652344 11.023438 9.867188 10.828125 9.980469 C 10.632812 10.089844 10.390625 10.082031 10.203125 9.957031 C 9.246094 9.3125 8.128906 8.972656 6.972656 8.972656 Z M 6.972656 8.972656 " fill-opacity="1" fill-rule="nonzero"/></g><path fill="#ffffff" d="M 7.609375 29.636719 C 7.460938 29.636719 7.308594 29.578125 7.195312 29.464844 C 6.964844 29.234375 6.964844 28.859375 7.195312 28.628906 L 10.03125 25.792969 C 10.261719 25.5625 10.636719 25.5625 10.867188 25.792969 C 11.097656 26.023438 11.097656 26.394531 10.867188 26.625 L 8.027344 29.464844 C 7.914062 29.578125 7.761719 29.636719 7.609375 29.636719 Z M 7.609375 29.636719 " fill-opacity="1" fill-rule="nonzero"/><path fill="#ffffff" d="M 22.660156 29.636719 C 22.507812 29.636719 22.355469 29.578125 22.242188 29.464844 C 22.011719 29.234375 22.011719 28.859375 22.242188 28.628906 L 25.078125 25.792969 C 25.308594 25.5625 25.683594 25.5625 25.914062 25.792969 C 26.144531 26.023438 26.144531 26.394531 25.914062 26.625 L 23.074219 29.464844 C 22.960938 29.578125 22.808594 29.636719 22.660156 29.636719 Z M 22.660156 29.636719 " fill-opacity="1" fill-rule="nonzero"/><path fill="#ffffff" d="M 15.136719 29.636719 C 14.984375 29.636719 14.832031 29.578125 14.71875 29.464844 C 14.488281 29.234375 14.488281 28.859375 14.71875 28.628906 L 17.554688 25.792969 C 17.785156 25.5625 18.160156 25.5625 18.390625 25.792969 C 18.621094 26.023438 18.621094 26.394531 18.390625 26.625 L 15.550781 29.464844 C 15.4375 29.578125 15.285156 29.636719 15.132812 29.636719 Z M 15.136719 29.636719 " fill-opacity="1" fill-rule="nonzero"/><g clip-path="url(#10bc086c4e)"><path fill="#ffffff" d="M 7.609375 36.160156 C 7.460938 36.160156 7.308594 36.101562 7.195312 35.984375 C 6.964844 35.753906 6.964844 35.382812 7.195312 35.152344 L 10.03125 32.3125 C 10.261719 32.082031 10.636719 32.082031 10.867188 32.3125 C 11.097656 32.542969 11.097656 32.917969 10.867188 33.148438 L 8.027344 35.984375 C 7.914062 36.101562 7.761719 36.160156 7.609375 36.160156 Z M 7.609375 36.160156 " fill-opacity="1" fill-rule="nonzero"/></g><g clip-path="url(#f5448f4b9a)"><path fill="#ffffff" d="M 15.136719 36.160156 C 14.984375 36.160156 14.832031 36.101562 14.71875 35.984375 C 14.488281 35.753906 14.488281 35.382812 14.71875 35.152344 L 17.554688 32.3125 C 17.785156 32.082031 18.160156 32.082031 18.390625 32.3125 C 18.621094 32.542969 18.621094 32.917969 18.390625 33.148438 L 15.550781 35.984375 C 15.4375 36.101562 15.285156 36.160156 15.132812 36.160156 Z M 15.136719 36.160156 " fill-opacity="1" fill-rule="nonzero"/></g></svg>