<svg xmlns="http://www.w3.org/2000/svg" xmlns:xlink="http://www.w3.org/1999/xlink" width="50" zoomAndPan="magnify" viewBox="0 0 37.5 37.499999" height="50" preserveAspectRatio="xMidYMid meet" version="1.0"><path fill="#3a3737" d="M 12.804688 24.125 C 19.058594 24.125 24.125 19.058594 24.125 12.804688 C 24.125 6.554688 19.058594 1.484375 12.804688 1.484375 C 6.554688 1.484375 1.484375 6.554688 1.484375 12.804688 C 1.484375 19.058594 6.554688 24.125 12.804688 24.125 Z M 22.371094 21.320312 L 36.714844 35.664062 C 37.003906 35.953125 37.003906 36.425781 36.714844 36.714844 C 36.425781 37.003906 35.953125 37.003906 35.664062 36.714844 L 21.320312 22.371094 C 19.058594 24.386719 16.074219 25.613281 12.804688 25.613281 C 5.734375 25.613281 0 19.878906 0 12.804688 C 0 5.734375 5.734375 0 12.804688 0 C 19.878906 0 25.613281 5.734375 25.613281 12.804688 C 25.613281 16.074219 24.386719 19.058594 22.371094 21.320312 Z M 22.371094 21.320312 " fill-opacity="1" fill-rule="nonzero"/></svg>