<svg xmlns="http://www.w3.org/2000/svg" xmlns:xlink="http://www.w3.org/1999/xlink" width="50" zoomAndPan="magnify" viewBox="0 0 37.5 37.499999" height="50" preserveAspectRatio="xMidYMid meet" version="1.0"><defs><clipPath id="0d8d1cf713"><path d="M 0 3.699219 L 37 3.699219 L 37 26 L 0 26 Z M 0 3.699219 " clip-rule="nonzero"/></clipPath><clipPath id="f33aeef51f"><path d="M 9 27 L 11 27 L 11 33.304688 L 9 33.304688 Z M 9 27 " clip-rule="nonzero"/></clipPath></defs><g clip-path="url(#0d8d1cf713)"><path fill="#ffffff" d="M 9.085938 25.308594 L 6.671875 25.296875 C 2.992188 25.285156 0.0078125 22.28125 0.0195312 18.601562 C 0.0351562 14.929688 3.027344 11.949219 6.695312 11.949219 C 6.703125 11.949219 6.710938 11.949219 6.71875 11.949219 L 7.117188 11.953125 C 7.117188 11.871094 7.117188 11.789062 7.117188 11.710938 C 7.132812 7.289062 10.734375 3.703125 15.152344 3.703125 C 15.160156 3.703125 15.171875 3.703125 15.179688 3.703125 C 18.527344 3.714844 21.535156 5.84375 22.6875 8.945312 C 23.347656 8.742188 24.03125 8.640625 24.726562 8.640625 C 24.734375 8.640625 24.742188 8.640625 24.75 8.640625 C 28.441406 8.65625 31.066406 11.097656 31.300781 14.65625 L 31.761719 14.65625 C 34.652344 14.667969 37 17.03125 36.988281 19.921875 C 36.984375 21.324219 36.433594 22.640625 35.4375 23.628906 C 34.449219 24.613281 33.136719 25.152344 31.742188 25.152344 C 31.734375 25.152344 31.730469 25.152344 31.722656 25.152344 L 29.308594 25.144531 C 29.003906 25.144531 28.757812 24.894531 28.757812 24.589844 C 28.761719 24.285156 29.007812 24.023438 29.3125 24.039062 L 31.726562 24.050781 C 31.730469 24.050781 31.738281 24.050781 31.742188 24.050781 C 32.84375 24.050781 33.878906 23.621094 34.660156 22.84375 C 35.449219 22.066406 35.882812 21.027344 35.886719 19.917969 C 35.894531 17.632812 34.042969 15.769531 31.757812 15.757812 L 30.761719 15.757812 C 30.617188 15.757812 30.476562 15.699219 30.371094 15.59375 C 30.269531 15.488281 30.210938 15.347656 30.210938 15.203125 C 30.222656 11.949219 28.027344 9.757812 24.746094 9.746094 C 24.742188 9.746094 24.734375 9.746094 24.726562 9.746094 C 23.980469 9.746094 23.246094 9.886719 22.542969 10.164062 C 22.398438 10.222656 22.234375 10.21875 22.097656 10.148438 C 21.957031 10.082031 21.851562 9.957031 21.808594 9.808594 C 20.957031 6.875 18.230469 4.816406 15.175781 4.808594 C 15.167969 4.808594 15.160156 4.808594 15.152344 4.808594 C 11.339844 4.808594 8.234375 7.902344 8.21875 11.714844 C 8.21875 11.957031 8.230469 12.203125 8.257812 12.449219 C 8.273438 12.605469 8.222656 12.761719 8.117188 12.878906 C 8.011719 12.992188 7.863281 13.058594 7.707031 13.058594 C 7.707031 13.058594 7.707031 13.058594 7.703125 13.058594 L 6.714844 13.054688 C 6.707031 13.054688 6.703125 13.054688 6.695312 13.054688 C 3.632812 13.054688 1.136719 15.539062 1.125 18.605469 C 1.113281 21.675781 3.601562 24.183594 6.675781 24.195312 L 9.089844 24.203125 C 9.394531 24.207031 9.640625 24.453125 9.636719 24.757812 C 9.636719 25.0625 9.390625 25.308594 9.085938 25.308594 " fill-opacity="1" fill-rule="nonzero"/></g><g clip-path="url(#f33aeef51f)"><path fill="#ffffff" d="M 10.136719 33.585938 C 9.832031 33.585938 9.585938 33.335938 9.585938 33.03125 L 9.585938 27.855469 C 9.585938 27.550781 9.832031 27.304688 10.136719 27.304688 C 10.441406 27.304688 10.691406 27.550781 10.691406 27.855469 L 10.691406 33.03125 C 10.691406 33.335938 10.441406 33.585938 10.136719 33.585938 " fill-opacity="1" fill-rule="nonzero"/></g><path fill="#ffffff" d="M 7.921875 32.25 C 7.730469 32.25 7.546875 32.148438 7.441406 31.972656 C 7.289062 31.710938 7.378906 31.371094 7.644531 31.21875 L 12.128906 28.632812 C 12.390625 28.476562 12.730469 28.570312 12.882812 28.832031 C 13.035156 29.097656 12.945312 29.433594 12.679688 29.585938 L 8.195312 32.175781 C 8.109375 32.226562 8.015625 32.25 7.921875 32.25 " fill-opacity="1" fill-rule="nonzero"/><path fill="#ffffff" d="M 12.355469 32.25 C 12.261719 32.25 12.167969 32.226562 12.082031 32.175781 L 7.597656 29.585938 C 7.332031 29.433594 7.242188 29.097656 7.394531 28.832031 C 7.546875 28.570312 7.886719 28.480469 8.148438 28.632812 L 12.632812 31.21875 C 12.894531 31.371094 12.988281 31.710938 12.835938 31.972656 C 12.730469 32.148438 12.546875 32.25 12.355469 32.25 " fill-opacity="1" fill-rule="nonzero"/><path fill="#ffffff" d="M 24.40625 32.636719 C 24.101562 32.636719 23.855469 32.386719 23.855469 32.082031 L 23.855469 26.132812 C 23.855469 25.828125 24.101562 25.582031 24.40625 25.582031 C 24.710938 25.582031 24.957031 25.828125 24.957031 26.132812 L 24.957031 32.082031 C 24.957031 32.386719 24.710938 32.636719 24.40625 32.636719 " fill-opacity="1" fill-rule="nonzero"/><path fill="#ffffff" d="M 21.859375 31.101562 C 21.667969 31.101562 21.480469 31.003906 21.378906 30.824219 C 21.226562 30.5625 21.316406 30.222656 21.582031 30.070312 L 26.734375 27.097656 C 26.996094 26.945312 27.332031 27.035156 27.488281 27.300781 C 27.640625 27.5625 27.550781 27.902344 27.285156 28.050781 L 22.132812 31.027344 C 22.046875 31.078125 21.953125 31.101562 21.859375 31.101562 " fill-opacity="1" fill-rule="nonzero"/><path fill="#ffffff" d="M 26.953125 31.101562 C 26.859375 31.101562 26.765625 31.078125 26.679688 31.027344 L 21.527344 28.050781 C 21.261719 27.898438 21.171875 27.5625 21.324219 27.300781 C 21.476562 27.035156 21.8125 26.945312 22.078125 27.097656 L 27.230469 30.070312 C 27.496094 30.222656 27.585938 30.5625 27.433594 30.824219 C 27.328125 31.003906 27.144531 31.101562 26.953125 31.101562 " fill-opacity="1" fill-rule="nonzero"/><path fill="#ffffff" d="M 18.457031 24.78125 C 18.152344 24.78125 17.90625 24.535156 17.90625 24.230469 L 17.90625 16.476562 C 17.90625 16.171875 18.152344 15.925781 18.457031 15.925781 C 18.761719 15.925781 19.007812 16.171875 19.007812 16.476562 L 19.007812 24.230469 C 19.007812 24.535156 18.761719 24.78125 18.457031 24.78125 " fill-opacity="1" fill-rule="nonzero"/><path fill="#ffffff" d="M 15.136719 22.78125 C 14.945312 22.78125 14.761719 22.683594 14.660156 22.507812 C 14.507812 22.242188 14.597656 21.90625 14.859375 21.753906 L 21.574219 17.875 C 21.839844 17.722656 22.175781 17.8125 22.328125 18.078125 C 22.480469 18.34375 22.390625 18.679688 22.125 18.832031 L 15.410156 22.707031 C 15.324219 22.757812 15.230469 22.78125 15.136719 22.78125 " fill-opacity="1" fill-rule="nonzero"/><path fill="#ffffff" d="M 21.777344 22.78125 C 21.683594 22.78125 21.589844 22.757812 21.503906 22.707031 L 14.789062 18.832031 C 14.527344 18.679688 14.433594 18.34375 14.585938 18.078125 C 14.738281 17.8125 15.078125 17.722656 15.339844 17.875 L 22.054688 21.753906 C 22.320312 21.90625 22.410156 22.242188 22.257812 22.507812 C 22.15625 22.683594 21.96875 22.78125 21.777344 22.78125 " fill-opacity="1" fill-rule="nonzero"/></svg>