<svg xmlns="http://www.w3.org/2000/svg" xmlns:xlink="http://www.w3.org/1999/xlink" width="50" zoomAndPan="magnify" viewBox="0 0 37.5 37.499999" height="50" preserveAspectRatio="xMidYMid meet" version="1.0"><defs><clipPath id="6b9da9f9e1"><path d="M 19 3 L 37.007812 3 L 37.007812 19 L 19 19 Z M 19 3 " clip-rule="nonzero"/></clipPath><clipPath id="c45e490cc8"><path d="M 3 32 L 5 32 L 5 34.648438 L 3 34.648438 Z M 3 32 " clip-rule="nonzero"/></clipPath><clipPath id="7f5103f463"><path d="M 8 32 L 10 32 L 10 34.648438 L 8 34.648438 Z M 8 32 " clip-rule="nonzero"/></clipPath><clipPath id="fa8bd3b7a7"><path d="M 18 32 L 20 32 L 20 34.648438 L 18 34.648438 Z M 18 32 " clip-rule="nonzero"/></clipPath><clipPath id="3a5d3c8df9"><path d="M 23 32 L 25 32 L 25 34.648438 L 23 34.648438 Z M 23 32 " clip-rule="nonzero"/></clipPath><clipPath id="14ed5c4f6c"><path d="M 28 32 L 30 32 L 30 34.648438 L 28 34.648438 Z M 28 32 " clip-rule="nonzero"/></clipPath><clipPath id="8c07f6c495"><path d="M 15 32 L 17 32 L 17 34.648438 L 15 34.648438 Z M 15 32 " clip-rule="nonzero"/></clipPath></defs><path fill="#ffffff" d="M 27.9375 24.859375 L 20.5625 24.859375 C 20.171875 24.859375 19.976562 24.382812 20.261719 24.101562 L 20.757812 23.644531 L 17.851562 23.644531 C 17.527344 23.644531 17.308594 23.296875 17.484375 22.992188 L 19.847656 18.761719 L 15.164062 18.761719 L 12.796875 24.578125 C 12.710938 24.75 12.558594 24.859375 12.386719 24.859375 L 5.140625 24.859375 C 2.300781 24.859375 0 22.558594 0 19.71875 C 0 17.136719 1.886719 15.011719 4.402344 14.640625 C 3.601562 11.671875 5.660156 8.632812 8.742188 8.265625 C 9.738281 5.574219 12.277344 3.773438 15.183594 3.773438 C 18.394531 3.773438 21.171875 6.03125 21.867188 9.132812 C 25.574219 7.417969 29.804688 10.542969 29.066406 14.707031 C 31.386719 15.25 33.058594 17.308594 33.058594 19.71875 C 33.082031 22.558594 30.757812 24.859375 27.9375 24.859375 Z M 21.648438 23.992188 L 27.9375 23.992188 C 30.28125 23.992188 32.191406 22.082031 32.191406 19.71875 C 32.191406 17.59375 30.609375 15.769531 28.480469 15.488281 C 27.832031 15.402344 28.285156 14.640625 28.285156 13.773438 C 28.285156 10.433594 24.597656 8.417969 21.777344 10.152344 C 21.519531 10.324219 21.148438 10.152344 21.128906 9.847656 C 20.738281 6.875 18.179688 4.640625 15.183594 4.640625 C 12.558594 4.640625 10.28125 6.3125 9.480469 8.785156 C 9.414062 8.957031 9.261719 9.089844 9.089844 9.089844 C 6.160156 9.285156 4.359375 12.277344 5.378906 14.878906 C 5.488281 15.140625 5.292969 15.445312 4.988281 15.464844 C 2.691406 15.53125 0.867188 17.417969 0.867188 19.71875 C 0.867188 22.0625 2.777344 23.992188 5.140625 23.992188 L 12.082031 23.992188 L 14.46875 18.15625 C 14.535156 17.984375 14.707031 17.875 14.878906 17.875 L 20.585938 17.875 C 20.910156 17.875 21.128906 18.242188 20.953125 18.523438 L 18.589844 22.777344 L 21.84375 22.777344 C 22.234375 22.777344 22.429688 23.253906 22.148438 23.515625 Z M 21.648438 23.992188 " fill-opacity="1" fill-rule="evenodd"/><g clip-path="url(#6b9da9f9e1)"><path fill="#ffffff" d="M 32.558594 18.070312 C 32.234375 18.070312 31.886719 18.070312 31.734375 17.808594 C 31.105469 16.550781 29.871094 15.660156 28.480469 15.488281 C 27.808594 15.402344 28.285156 14.640625 28.285156 13.773438 C 28.285156 10.433594 24.597656 8.417969 21.777344 10.152344 C 21.496094 10.324219 21.148438 10.152344 21.105469 9.847656 C 20.78125 7.222656 19.046875 6.636719 19.871094 6.140625 C 20.390625 5.792969 20.976562 5.617188 21.5625 5.554688 C 23.035156 2.082031 27.570312 2.210938 28.914062 5.726562 C 31.496094 4.035156 34.792969 5.964844 34.96875 9.285156 C 36.226562 10.066406 37.007812 11.5625 37.007812 13.144531 C 37.007812 15.421875 35.074219 18.070312 32.558594 18.070312 Z M 32.40625 17.179688 C 34.445312 17.289062 36.140625 15.03125 36.140625 13.167969 C 36.140625 11.777344 35.445312 10.519531 34.339844 9.933594 C 34.1875 9.847656 34.101562 9.695312 34.101562 9.542969 C 34.101562 6.550781 31.019531 4.878906 28.980469 6.769531 C 28.71875 7.007812 28.328125 6.875 28.265625 6.550781 C 27.484375 3.230469 23.425781 2.929688 22.277344 6.140625 C 22.105469 6.617188 21.671875 6.269531 20.757812 6.636719 C 21.300781 7.398438 21.671875 8.242188 21.867188 9.132812 C 25.574219 7.417969 29.804688 10.542969 29.066406 14.707031 C 30.476562 15.03125 31.691406 15.945312 32.40625 17.179688 Z M 32.40625 17.179688 " fill-opacity="1" fill-rule="evenodd"/></g><path fill="#ffffff" d="M 3.664062 27.636719 C 3.082031 27.636719 3.230469 26.8125 3.230469 26.09375 C 3.230469 25.511719 4.101562 25.511719 4.101562 26.09375 C 4.101562 26.8125 4.25 27.636719 3.664062 27.636719 Z M 3.664062 27.636719 " fill-opacity="1" fill-rule="evenodd"/><path fill="#ffffff" d="M 9.023438 27.636719 C 8.4375 27.636719 8.589844 26.8125 8.589844 26.09375 C 8.589844 25.511719 9.457031 25.511719 9.457031 26.09375 C 9.457031 26.8125 9.609375 27.636719 9.023438 27.636719 Z M 9.023438 27.636719 " fill-opacity="1" fill-rule="evenodd"/><path fill="#ffffff" d="M 6.335938 31.800781 C 5.75 31.800781 5.898438 30.976562 5.898438 30.261719 C 5.898438 29.675781 6.769531 29.675781 6.769531 30.261719 C 6.769531 30.976562 6.941406 31.800781 6.335938 31.800781 Z M 6.335938 31.800781 " fill-opacity="1" fill-rule="evenodd"/><path fill="#ffffff" d="M 24.054688 27.636719 C 23.472656 27.636719 23.621094 26.8125 23.621094 26.09375 C 23.621094 25.511719 24.492188 25.511719 24.492188 26.09375 C 24.492188 26.8125 24.640625 27.636719 24.054688 27.636719 Z M 24.054688 27.636719 " fill-opacity="1" fill-rule="evenodd"/><path fill="#ffffff" d="M 29.414062 27.636719 C 28.828125 27.636719 28.980469 26.8125 28.980469 26.09375 C 28.980469 25.511719 29.847656 25.511719 29.847656 26.09375 C 29.847656 26.8125 30 27.636719 29.414062 27.636719 Z M 29.414062 27.636719 " fill-opacity="1" fill-rule="evenodd"/><path fill="#ffffff" d="M 26.722656 31.800781 C 26.140625 31.800781 26.289062 30.976562 26.289062 30.261719 C 26.289062 29.675781 27.160156 29.675781 27.160156 30.261719 C 27.160156 30.976562 27.332031 31.800781 26.722656 31.800781 Z M 26.722656 31.800781 " fill-opacity="1" fill-rule="evenodd"/><g clip-path="url(#c45e490cc8)"><path fill="#ffffff" d="M 3.664062 34.925781 C 3.082031 34.925781 3.230469 34.101562 3.230469 33.382812 C 3.230469 32.796875 4.101562 32.796875 4.101562 33.382812 C 4.101562 34.101562 4.25 34.925781 3.664062 34.925781 Z M 3.664062 34.925781 " fill-opacity="1" fill-rule="evenodd"/></g><g clip-path="url(#7f5103f463)"><path fill="#ffffff" d="M 9.023438 34.925781 C 8.4375 34.925781 8.589844 34.101562 8.589844 33.382812 C 8.589844 32.796875 9.457031 32.796875 9.457031 33.382812 C 9.457031 34.101562 9.609375 34.925781 9.023438 34.925781 Z M 9.023438 34.925781 " fill-opacity="1" fill-rule="evenodd"/></g><g clip-path="url(#fa8bd3b7a7)"><path fill="#ffffff" d="M 19.21875 34.925781 C 18.632812 34.925781 18.785156 34.101562 18.785156 33.382812 C 18.785156 32.796875 19.652344 32.796875 19.652344 33.382812 C 19.652344 34.101562 19.804688 34.925781 19.21875 34.925781 Z M 19.21875 34.925781 " fill-opacity="1" fill-rule="evenodd"/></g><g clip-path="url(#3a5d3c8df9)"><path fill="#ffffff" d="M 24.054688 34.925781 C 23.472656 34.925781 23.621094 34.101562 23.621094 33.382812 C 23.621094 32.796875 24.492188 32.796875 24.492188 33.382812 C 24.492188 34.101562 24.640625 34.925781 24.054688 34.925781 Z M 24.054688 34.925781 " fill-opacity="1" fill-rule="evenodd"/></g><g clip-path="url(#14ed5c4f6c)"><path fill="#ffffff" d="M 29.414062 34.925781 C 28.828125 34.925781 28.980469 34.101562 28.980469 33.382812 C 28.980469 32.796875 29.847656 32.796875 29.847656 33.382812 C 29.847656 34.101562 30 34.925781 29.414062 34.925781 Z M 29.414062 34.925781 " fill-opacity="1" fill-rule="evenodd"/></g><path fill="#ffffff" d="M 35.292969 25.011719 C 34.683594 25.011719 34.859375 24.1875 34.859375 23.449219 C 34.859375 22.886719 35.726562 22.886719 35.726562 23.449219 C 35.726562 24.1875 35.878906 25.011719 35.292969 25.011719 Z M 35.292969 25.011719 " fill-opacity="1" fill-rule="evenodd"/><path fill="#ffffff" d="M 34.078125 29.828125 C 33.472656 29.828125 33.644531 29.003906 33.644531 28.285156 C 33.644531 27.722656 34.511719 27.722656 34.511719 28.285156 C 34.511719 29.003906 34.664062 29.828125 34.078125 29.828125 Z M 34.078125 29.828125 " fill-opacity="1" fill-rule="evenodd"/><path fill="#ffffff" d="M 11.214844 33.558594 C 10.910156 33.558594 10.695312 33.230469 10.824219 32.949219 L 13.472656 27.246094 L 11.410156 27.246094 C 11.105469 27.246094 10.890625 26.917969 10.996094 26.636719 L 14.492188 18.15625 C 14.554688 17.984375 14.707031 17.894531 14.878906 17.894531 L 20.585938 17.894531 C 20.910156 17.894531 21.128906 18.242188 20.976562 18.523438 L 18.589844 22.777344 L 21.84375 22.777344 C 22.234375 22.777344 22.429688 23.253906 22.148438 23.535156 L 11.519531 33.425781 C 11.433594 33.515625 11.324219 33.558594 11.214844 33.558594 Z M 12.0625 26.378906 L 14.164062 26.378906 C 14.492188 26.378906 14.683594 26.703125 14.554688 26.984375 L 12.558594 31.28125 L 20.738281 23.644531 L 17.851562 23.644531 C 17.527344 23.644531 17.308594 23.296875 17.484375 22.992188 L 19.847656 18.761719 L 15.164062 18.761719 Z M 12.0625 26.378906 " fill-opacity="1" fill-rule="evenodd"/><path fill="#ffffff" d="M 20.910156 30.628906 C 20.324219 30.628906 20.476562 29.804688 20.476562 29.089844 C 20.476562 28.523438 21.34375 28.523438 21.34375 29.089844 C 21.34375 29.804688 21.496094 30.628906 20.910156 30.628906 Z M 20.910156 30.628906 " fill-opacity="1" fill-rule="evenodd"/><g clip-path="url(#8c07f6c495)"><path fill="#ffffff" d="M 15.988281 34.207031 C 15.402344 34.207031 15.554688 33.382812 15.554688 32.644531 C 15.554688 32.082031 16.421875 32.082031 16.421875 32.644531 C 16.421875 33.382812 16.574219 34.207031 15.988281 34.207031 Z M 15.988281 34.207031 " fill-opacity="1" fill-rule="evenodd"/></g><path fill="#ffffff" d="M 10.390625 12.863281 C 10.152344 12.863281 9.957031 12.667969 9.957031 12.429688 C 9.957031 9.78125 12.082031 7.65625 14.730469 7.65625 C 15.292969 7.65625 15.292969 8.523438 14.730469 8.523438 C 12.558594 8.523438 10.824219 10.261719 10.824219 12.429688 C 10.824219 12.667969 10.628906 12.863281 10.390625 12.863281 Z M 10.390625 12.863281 " fill-opacity="1" fill-rule="evenodd"/></svg>